<svg xmlns="http://www.w3.org/2000/svg" width="58" height="38.313" viewBox="0 0 58 38.313"><path d="M939.29,467.715c-2.824,2.676-3.384,3.194-9.656,9.133a7.257,7.257,0,0,1-3.95,2.346c-.174-.153-.349-.313-.522-.479l-4.575-4.4a4.514,4.514,0,0,0,5.015.219l7.217-6.819H932.8l-6.376-6.132h0l-5.566-5.356h-.022c-4.311-3.8-8.695-3.777-11.883-2.52a11.73,11.73,0,0,1,8.473-3,11.612,11.612,0,0,1,8.1,3.818Zm6.488,0L929.64,452.434c-2.061-1.953-4.042-3.435-7.23-3.275a14.086,14.086,0,0,1,13.736,3.214l16.116,15.342-14.491,13.809c-.075.069-.145.138-.228.2a10.81,10.81,0,0,1-10.289-1.314,5.057,5.057,0,0,0,6.1-.926Z" transform="translate(-894.262 -448.557)" fill="#0e86d4" fill-rule="evenodd"/><path d="M911.788,466.5c2.826-2.673,3.385-3.19,9.656-9.13a7.247,7.247,0,0,1,3.952-2.346q.261.229.521.479l4.575,4.4a4.511,4.511,0,0,0-5.014-.218l-7.219,6.817h.017l6.376,6.135h0l5.566,5.358h.023c4.31,3.8,8.695,3.776,11.883,2.52a11.727,11.727,0,0,1-8.472,3,11.609,11.609,0,0,1-8.1-3.818Zm-6.486,0,16.137,15.284c2.059,1.953,4.04,3.435,7.228,3.275a14.086,14.086,0,0,1-13.735-3.214L898.816,466.5l14.491-13.8c.074-.072.145-.138.226-.2a10.817,10.817,0,0,1,10.289,1.314,5.057,5.057,0,0,0-6.1.927Z" transform="translate(-898.816 -447.344)" fill="#38b000" fill-rule="evenodd"/></svg>