<svg xmlns="http://www.w3.org/2000/svg" xmlns:xlink="http://www.w3.org/1999/xlink" width="120.905" height="47.849" viewBox="0 0 120.905 47.849"><defs><clipPath id="a"><rect width="120.905" height="47.849" transform="translate(0 0)" fill="none"/></clipPath></defs><g transform="translate(0 0)" clip-path="url(#a)"><path d="M222.2,34.359l.158-.367.734-1.5a6.579,6.579,0,0,1-2.306-1.207q-.458.926-.929,1.876c-.509,1.028-2.672,4.575-3.174,5.572,1.055-1.241,4.381-2.619,6.323-2.771,2.788-.217,6.042-.142,8.455-.116a11.525,11.525,0,0,1,.749,1.531l2.144,4.553c.763,1.666,2.317,4.1-.233,4.838L233.1,47l12.909,0a7.674,7.674,0,0,1-2.347-.831c-1.907-1.111-2.7-3.259-3.587-5.048-1.259-2.537-2.509-4.979-3.788-7.514l-7.568-15.024H222.56c1.731.327,2.76,1.079,1.87,4.206a36.054,36.054,0,0,1-1.958,4.987,6.651,6.651,0,0,0,1.862,2.168l1.284-2.63c.989-1.979,1.136-1.653,1.953.029.717,1.473,1.264,2.694,1.83,3.961l.169-.006c-.042.035-.083.069-.125.1.412.92.835,1.869,1.344,2.961Z" transform="translate(-128.464 -11.015)" fill="#37424a" fill-rule="evenodd"/><path d="M140.818,19.007a4.874,4.874,0,0,1,2.134.744c2.708,1.931,1.376,13,1.678,16.426.59,6.681,3.709,11.067,11.622,11.067,6.087,0,9.073-2.35,11.138-5.458a.447.447,0,0,1-.057.057,14.783,14.783,0,0,1-9.1,3.525c-7.742,0-7.6-5.506-7.611-10.875-.007-3.241,0-6.483,0-9.724,0-1.446-.149-2.6.5-3.812.541-1.012,2.625-1.808,4.236-1.956Z" transform="translate(-83.486 -11.264)" fill="#37424a" fill-rule="evenodd"/><path d="M6.711,45.014a9.7,9.7,0,0,0-3.3-6.783,38.887,38.887,0,0,1,.463,8.013v7.712c0,1.91.331,3.16-1.819,4.162A6.1,6.1,0,0,1,0,58.632l10.787.016A4.661,4.661,0,0,1,7.4,56.661c-.762-1.18-.637-2.2-.637-3.61,0-3.076.071-4.071-.013-7.141Z" transform="translate(0 -22.666)" fill="#37424a" fill-rule="evenodd"/><path d="M118.019,32.788c.053-6.054-1.763-12.279-5.952-14.431,7.284.422,12.332,6.1,12.392,14.408v.046c-.06,8.312-5.108,13.986-12.392,14.408,4.189-2.152,6.005-8.378,5.952-14.431" transform="translate(-66.441 -10.883)" fill="#37424a" fill-rule="evenodd"/><path d="M80.022,32.788c-.053-6.054,1.762-12.279,5.952-14.431-7.284.422-12.333,6.1-12.393,14.408v.046c.06,8.312,5.109,13.986,12.393,14.408-4.19-2.152-6.005-8.378-5.952-14.431" transform="translate(-43.624 -10.883)" fill="#37424a" fill-rule="evenodd"/><path d="M0,19.028c3.354,1.1,5.093,3.862,6.892,6.472L21.263,47.262l7.33.031c-.229-.98-8.033-12.314-9.281-14.234L11.4,21.23a5.06,5.06,0,0,0-4.213-2.2Z" transform="translate(0 -11.281)" fill="#37424a" fill-rule="evenodd"/><path d="M50.9,28.669a7.53,7.53,0,0,0,5.328-5.951c.991-5.526-1.542-10.172.478-11.755a9.319,9.319,0,0,0-7.676,5.98c-2.028,6.1.847,10.011.847,10.011s3.222-4.685,2.964-7.675a13.962,13.962,0,0,1-1.941,9.39" transform="translate(-28.637 -6.5)" fill="#8dc175"/><path d="M15.655,109.061H14.612l-1.458-2.052H10.436v2.052H9.545v-5.388h4.246a1.857,1.857,0,0,1,1.328.455,1.627,1.627,0,0,1,.489,1.244,1.565,1.565,0,0,1-.393,1.1,1.79,1.79,0,0,1-1.011.486Zm9.261,0H19.273v-5.387h5.435v.8H20.167v1.387h3.156v.8H20.167v1.591h4.749Zm8.3-4.122a5.311,5.311,0,0,0-2.437-.612,3.259,3.259,0,0,0-1.266.193c-.294.132-.44.308-.44.539s.157.412.471.52a4.356,4.356,0,0,0,1.094.165c.744.045,1.238.088,1.477.12a3.219,3.219,0,0,1,1.492.5A1.22,1.22,0,0,1,34.1,107.4a1.469,1.469,0,0,1-.76,1.32,4.142,4.142,0,0,1-2.184.477,5.041,5.041,0,0,1-3.208-.908l.492-.652a5.11,5.11,0,0,0,2.725.773,3.4,3.4,0,0,0,1.466-.26.762.762,0,0,0,.5-.689c0-.344-.217-.572-.648-.687a13.828,13.828,0,0,0-1.855-.182,5.48,5.48,0,0,1-1.859-.359,1.082,1.082,0,0,1-.625-1.056,1.345,1.345,0,0,1,.7-1.2,3.82,3.82,0,0,1,2-.441,5.071,5.071,0,0,1,2.922.8Zm4.5,4.122h.888v-5.387h-.888Zm8.336-5.388a3.186,3.186,0,0,1,2.228.747,2.592,2.592,0,0,1,.826,2.008,2.442,2.442,0,0,1-.879,1.918,2.938,2.938,0,0,1-2.009.715H42.646v-5.388Zm.239,4.582a1.767,1.767,0,0,0,1.324-.516,1.8,1.8,0,0,0,.519-1.334,1.871,1.871,0,0,0-.547-1.4,2.063,2.063,0,0,0-1.463-.53H43.539v3.778Zm12.152.806H52.8v-5.387h5.431v.8H53.7v1.387h3.16v.8H53.7v1.591h4.749Zm9.7,0h-1.1l-4.121-4.419v4.419h-.9v-5.387h1.114l4.117,4.421v-4.421h.891ZM78.46,104.9l-.809.3a2.976,2.976,0,0,0-2.3-.87,2.8,2.8,0,0,0-1.816.57,1.794,1.794,0,0,0-.706,1.463,1.812,1.812,0,0,0,.7,1.477,3.341,3.341,0,0,0,4.123-.329l.769.423a3.337,3.337,0,0,1-1.315.984,4.556,4.556,0,0,1-1.753.3,3.794,3.794,0,0,1-2.367-.718A2.645,2.645,0,0,1,73,104.222a3.794,3.794,0,0,1,2.356-.718,3.68,3.68,0,0,1,3.1,1.393m9.371,4.164H82.184v-5.387h5.438v.8H83.079v1.387h3.159v.8H83.079v1.591h4.752ZM13.654,106.2c.693,0,1.04-.274,1.04-.831,0-.594-.373-.9-1.116-.9H10.436V106.2Z" transform="translate(-5.659 -61.364)" fill="#8dc175" fill-rule="evenodd"/><path d="M233.336,26.341a44.428,44.428,0,0,0,3.978-6.372,17.937,17.937,0,0,0,2.076-7.877,11.249,11.249,0,0,0-3.5-8.361A10.788,10.788,0,0,0,222.706,2.9a8.723,8.723,0,0,0-2.812,3.386,10.37,10.37,0,0,0-.989,4.526c0,3.286,1.2,9.173,8.316,8.844a7.131,7.131,0,0,1-8.851-.068,8.683,8.683,0,0,1-2.4-3.248,10.29,10.29,0,0,1-.839-4.145,10.651,10.651,0,0,1,4.2-8.672C224.3-.4,231.337-.826,236.93,1.157a13.656,13.656,0,0,1,5.131,3.126A12.217,12.217,0,0,1,244.922,8.5a13.17,13.17,0,0,1,.992,5.044q0,5.182-4.006,10.606a38.573,38.573,0,0,1-4.693,5.13c-.513.475-1.073.955-1.67,1.44-.735-1.471-1.469-2.918-2.21-4.379M243.9,47.849H210.855a204.31,204.31,0,0,0,18.768-16.818l.749,1.589c.033.073.069.148.1.224a1.645,1.645,0,0,1-.552,1.99c-3.531,2.9-6.634,4.931-10.394,7.51l19.074-.027a6.632,6.632,0,0,0,4.244-1.762c.967-.944,1.261-1.958,1.846-3.709l.943-.039Z" transform="translate(-125.009 0)" fill="#8dc175"/><path d="M256.022,60.564c.762,1.666,2.317,4.1-.233,4.838l-1.021.238,12.909-.005a7.649,7.649,0,0,1-2.347-.831c-1.907-1.111-2.7-3.259-3.587-5.048-1.259-2.537-2.509-4.979-3.788-7.514l-1.121-2.225-3.6,4.619c.213.363.5,1.063.647,1.376Z" transform="translate(-150.132 -29.653)" fill="#37424a" fill-rule="evenodd"/><path d="M200.372,32.514c.085-3.506.013-3.606.013-7.12,0-1.607-.125-2.775.638-4.124A4.534,4.534,0,0,1,204.406,19l-10.787.019a5.485,5.485,0,0,1,2.054.586c2.15,1.144,1.819,2.572,1.819,4.754v7.773c0,3.062.167,5.954-1.1,8.266a11.1,11.1,0,0,0,3.975-7.884" transform="translate(-114.79 -11.264)" fill="#37424a" fill-rule="evenodd"/></g></svg>